<mxfile host="Electron" agent="Mozilla/5.0 (Macintosh; Intel Mac OS X 10_15_7) AppleWebKit/537.36 (KHTML, like Gecko) draw.io/24.7.5 Chrome/126.0.6478.183 Electron/31.3.0 Safari/537.36" version="24.7.5" pages="2">
  <diagram name="Twitter" id="8kbdI-1JXpuG4rOSMM_E">
    <mxGraphModel dx="1706" dy="1125" grid="1" gridSize="10" guides="1" tooltips="1" connect="1" arrows="1" fold="1" page="1" pageScale="1" pageWidth="850" pageHeight="1100" math="0" shadow="0">
      <root>
        <mxCell id="0" />
        <mxCell id="1" parent="0" />
        <mxCell id="hKnTpAbirgEthylVcUhE-4" value="" style="edgeStyle=none;curved=1;rounded=0;orthogonalLoop=1;jettySize=auto;html=1;fontSize=12;startSize=8;endSize=8;fontFamily=Comic Sans MS;" edge="1" parent="1" source="hKnTpAbirgEthylVcUhE-2" target="hKnTpAbirgEthylVcUhE-3">
          <mxGeometry relative="1" as="geometry" />
        </mxCell>
        <mxCell id="hKnTpAbirgEthylVcUhE-2" value="&lt;font&gt;Client&lt;/font&gt;" style="rounded=1;whiteSpace=wrap;html=1;fontFamily=Comic Sans MS;" vertex="1" parent="1">
          <mxGeometry x="60" y="470" width="120" height="60" as="geometry" />
        </mxCell>
        <mxCell id="hKnTpAbirgEthylVcUhE-8" value="" style="edgeStyle=none;curved=1;rounded=0;orthogonalLoop=1;jettySize=auto;html=1;fontSize=12;startSize=8;endSize=8;fontFamily=Comic Sans MS;" edge="1" parent="1" source="hKnTpAbirgEthylVcUhE-3" target="hKnTpAbirgEthylVcUhE-7">
          <mxGeometry relative="1" as="geometry" />
        </mxCell>
        <mxCell id="hKnTpAbirgEthylVcUhE-3" value="&lt;font&gt;Load Balancer&lt;/font&gt;" style="rounded=1;whiteSpace=wrap;html=1;fontFamily=Comic Sans MS;" vertex="1" parent="1">
          <mxGeometry x="300" y="340" width="120" height="320" as="geometry" />
        </mxCell>
        <mxCell id="hKnTpAbirgEthylVcUhE-5" value="&lt;font&gt;&amp;lt;&lt;/font&gt;&lt;span style=&quot;&quot;&gt;HTTPS&amp;gt;&lt;/span&gt;" style="text;html=1;align=center;verticalAlign=middle;whiteSpace=wrap;rounded=0;fontSize=16;fontFamily=Comic Sans MS;" vertex="1" parent="1">
          <mxGeometry x="200" y="500" width="80" height="30" as="geometry" />
        </mxCell>
        <mxCell id="hKnTpAbirgEthylVcUhE-6" value="&lt;font&gt;Routing Algo, Round Robin&lt;/font&gt;" style="text;html=1;align=center;verticalAlign=middle;whiteSpace=wrap;rounded=0;fontSize=16;fontFamily=Comic Sans MS;" vertex="1" parent="1">
          <mxGeometry x="250" y="670" width="220" height="30" as="geometry" />
        </mxCell>
        <mxCell id="hKnTpAbirgEthylVcUhE-12" value="Write" style="edgeStyle=none;curved=1;rounded=0;orthogonalLoop=1;jettySize=auto;html=1;fontSize=12;startSize=8;endSize=8;fontFamily=Comic Sans MS;" edge="1" parent="1" source="hKnTpAbirgEthylVcUhE-7" target="hKnTpAbirgEthylVcUhE-11">
          <mxGeometry relative="1" as="geometry" />
        </mxCell>
        <mxCell id="hKnTpAbirgEthylVcUhE-14" value="" style="edgeStyle=none;curved=1;rounded=0;orthogonalLoop=1;jettySize=auto;html=1;fontSize=12;startSize=8;endSize=8;fontFamily=Comic Sans MS;" edge="1" parent="1" source="hKnTpAbirgEthylVcUhE-7" target="hKnTpAbirgEthylVcUhE-13">
          <mxGeometry relative="1" as="geometry" />
        </mxCell>
        <mxCell id="hKnTpAbirgEthylVcUhE-16" value="" style="edgeStyle=none;curved=1;rounded=0;orthogonalLoop=1;jettySize=auto;html=1;fontSize=12;startSize=8;endSize=8;fontFamily=Comic Sans MS;" edge="1" parent="1" source="hKnTpAbirgEthylVcUhE-7" target="hKnTpAbirgEthylVcUhE-15">
          <mxGeometry relative="1" as="geometry" />
        </mxCell>
        <mxCell id="hKnTpAbirgEthylVcUhE-17" value="" style="edgeStyle=none;curved=1;rounded=0;orthogonalLoop=1;jettySize=auto;html=1;fontSize=12;startSize=8;endSize=8;fontFamily=Comic Sans MS;" edge="1" parent="1" source="hKnTpAbirgEthylVcUhE-7" target="hKnTpAbirgEthylVcUhE-15">
          <mxGeometry relative="1" as="geometry" />
        </mxCell>
        <mxCell id="hKnTpAbirgEthylVcUhE-18" value="" style="edgeStyle=none;curved=1;rounded=0;orthogonalLoop=1;jettySize=auto;html=1;fontSize=12;startSize=8;endSize=8;fontFamily=Comic Sans MS;" edge="1" parent="1" source="hKnTpAbirgEthylVcUhE-7" target="hKnTpAbirgEthylVcUhE-15">
          <mxGeometry relative="1" as="geometry" />
        </mxCell>
        <mxCell id="hKnTpAbirgEthylVcUhE-7" value="&lt;font&gt;API Gateway&lt;/font&gt;" style="whiteSpace=wrap;html=1;rounded=1;fontFamily=Comic Sans MS;" vertex="1" parent="1">
          <mxGeometry x="540" y="470" width="120" height="60" as="geometry" />
        </mxCell>
        <mxCell id="hKnTpAbirgEthylVcUhE-38" style="edgeStyle=none;curved=1;rounded=0;orthogonalLoop=1;jettySize=auto;html=1;entryX=0;entryY=0.5;entryDx=0;entryDy=0;fontSize=12;startSize=8;endSize=8;" edge="1" parent="1" source="hKnTpAbirgEthylVcUhE-11" target="hKnTpAbirgEthylVcUhE-26">
          <mxGeometry relative="1" as="geometry" />
        </mxCell>
        <mxCell id="hKnTpAbirgEthylVcUhE-11" value="&lt;font&gt;Tweet CRUD Srvc&lt;/font&gt;" style="whiteSpace=wrap;html=1;rounded=1;fontFamily=Comic Sans MS;" vertex="1" parent="1">
          <mxGeometry x="780" y="280" width="120" height="60" as="geometry" />
        </mxCell>
        <mxCell id="hKnTpAbirgEthylVcUhE-13" value="&lt;font&gt;Reply CRUD Srvc&lt;/font&gt;" style="whiteSpace=wrap;html=1;rounded=1;fontFamily=Comic Sans MS;" vertex="1" parent="1">
          <mxGeometry x="780" y="400" width="120" height="60" as="geometry" />
        </mxCell>
        <mxCell id="hKnTpAbirgEthylVcUhE-15" value="&lt;font&gt;Search Service&lt;/font&gt;" style="whiteSpace=wrap;html=1;rounded=1;fontFamily=Comic Sans MS;" vertex="1" parent="1">
          <mxGeometry x="780" y="510" width="120" height="60" as="geometry" />
        </mxCell>
        <mxCell id="hKnTpAbirgEthylVcUhE-19" value="&lt;font&gt;Timeline Service&lt;/font&gt;" style="whiteSpace=wrap;html=1;rounded=1;fontFamily=Comic Sans MS;" vertex="1" parent="1">
          <mxGeometry x="780" y="620" width="120" height="60" as="geometry" />
        </mxCell>
        <mxCell id="hKnTpAbirgEthylVcUhE-34" style="edgeStyle=orthogonalEdgeStyle;curved=1;rounded=0;orthogonalLoop=1;jettySize=auto;html=1;fontSize=12;startSize=8;endSize=8;" edge="1" parent="1" source="hKnTpAbirgEthylVcUhE-20" target="hKnTpAbirgEthylVcUhE-33">
          <mxGeometry relative="1" as="geometry" />
        </mxCell>
        <mxCell id="hKnTpAbirgEthylVcUhE-20" value="&lt;font&gt;Profile Service&lt;/font&gt;" style="whiteSpace=wrap;html=1;rounded=1;fontFamily=Comic Sans MS;" vertex="1" parent="1">
          <mxGeometry x="780" y="730" width="120" height="60" as="geometry" />
        </mxCell>
        <mxCell id="hKnTpAbirgEthylVcUhE-21" value="elastic&lt;div&gt;search&lt;/div&gt;" style="shape=cylinder3;whiteSpace=wrap;html=1;boundedLbl=1;backgroundOutline=1;size=15;fontFamily=Comic Sans MS;" vertex="1" parent="1">
          <mxGeometry x="1050" y="500" width="60" height="80" as="geometry" />
        </mxCell>
        <mxCell id="hKnTpAbirgEthylVcUhE-23" value="&lt;font&gt;Tweet Content&lt;/font&gt;" style="shape=cylinder3;whiteSpace=wrap;html=1;boundedLbl=1;backgroundOutline=1;size=15;fontFamily=Comic Sans MS;" vertex="1" parent="1">
          <mxGeometry x="810" y="120" width="60" height="80" as="geometry" />
        </mxCell>
        <mxCell id="hKnTpAbirgEthylVcUhE-24" value="&lt;font&gt;Media&lt;/font&gt;" style="shape=cylinder3;whiteSpace=wrap;html=1;boundedLbl=1;backgroundOutline=1;size=15;fontFamily=Comic Sans MS;" vertex="1" parent="1">
          <mxGeometry x="1040" y="90" width="60" height="80" as="geometry" />
        </mxCell>
        <mxCell id="hKnTpAbirgEthylVcUhE-25" value="&lt;font&gt;Replies&lt;/font&gt;" style="shape=cylinder3;whiteSpace=wrap;html=1;boundedLbl=1;backgroundOutline=1;size=15;fontFamily=Comic Sans MS;" vertex="1" parent="1">
          <mxGeometry x="1050" y="390" width="60" height="80" as="geometry" />
        </mxCell>
        <mxCell id="hKnTpAbirgEthylVcUhE-37" style="edgeStyle=none;curved=1;rounded=0;orthogonalLoop=1;jettySize=auto;html=1;fontSize=12;startSize=8;endSize=8;" edge="1" parent="1" source="hKnTpAbirgEthylVcUhE-26" target="hKnTpAbirgEthylVcUhE-27">
          <mxGeometry relative="1" as="geometry" />
        </mxCell>
        <mxCell id="hKnTpAbirgEthylVcUhE-26" value="&lt;font&gt;Msg Queue&lt;/font&gt;" style="shape=process;whiteSpace=wrap;html=1;backgroundOutline=1;fontFamily=Comic Sans MS;" vertex="1" parent="1">
          <mxGeometry x="1030" y="280" width="120" height="60" as="geometry" />
        </mxCell>
        <mxCell id="hKnTpAbirgEthylVcUhE-27" value="&lt;font&gt;Timeline Fanout&lt;/font&gt;" style="whiteSpace=wrap;html=1;rounded=1;fontFamily=Comic Sans MS;" vertex="1" parent="1">
          <mxGeometry x="1270" y="280" width="120" height="60" as="geometry" />
        </mxCell>
        <mxCell id="hKnTpAbirgEthylVcUhE-35" style="edgeStyle=orthogonalEdgeStyle;curved=1;rounded=0;orthogonalLoop=1;jettySize=auto;html=1;entryX=1;entryY=0.5;entryDx=0;entryDy=0;fontSize=12;startSize=8;endSize=8;startArrow=classic;startFill=1;" edge="1" parent="1" source="hKnTpAbirgEthylVcUhE-28" target="hKnTpAbirgEthylVcUhE-19">
          <mxGeometry relative="1" as="geometry" />
        </mxCell>
        <mxCell id="hKnTpAbirgEthylVcUhE-28" value="&lt;font&gt;Timeline Cache&lt;/font&gt;" style="whiteSpace=wrap;html=1;rounded=1;fontFamily=Comic Sans MS;" vertex="1" parent="1">
          <mxGeometry x="1380" y="400" width="120" height="60" as="geometry" />
        </mxCell>
        <mxCell id="hKnTpAbirgEthylVcUhE-29" value="&lt;font&gt;CDNs&lt;/font&gt;" style="ellipse;whiteSpace=wrap;html=1;aspect=fixed;fontFamily=Comic Sans MS;" vertex="1" parent="1">
          <mxGeometry x="520" y="100" width="80" height="80" as="geometry" />
        </mxCell>
        <mxCell id="hKnTpAbirgEthylVcUhE-30" style="edgeStyle=orthogonalEdgeStyle;rounded=0;orthogonalLoop=1;jettySize=auto;html=1;fontSize=12;startSize=8;endSize=8;entryX=0.5;entryY=0;entryDx=0;entryDy=0;entryPerimeter=0;curved=1;" edge="1" parent="1" source="hKnTpAbirgEthylVcUhE-29" target="hKnTpAbirgEthylVcUhE-24">
          <mxGeometry relative="1" as="geometry">
            <mxPoint x="1010" y="130" as="targetPoint" />
          </mxGeometry>
        </mxCell>
        <mxCell id="hKnTpAbirgEthylVcUhE-31" style="edgeStyle=orthogonalEdgeStyle;curved=1;rounded=0;orthogonalLoop=1;jettySize=auto;html=1;entryX=0;entryY=0.5;entryDx=0;entryDy=0;entryPerimeter=0;fontSize=12;startSize=8;endSize=8;" edge="1" parent="1" source="hKnTpAbirgEthylVcUhE-23" target="hKnTpAbirgEthylVcUhE-21">
          <mxGeometry relative="1" as="geometry" />
        </mxCell>
        <mxCell id="hKnTpAbirgEthylVcUhE-32" value="&lt;font style=&quot;font-size: 14px;&quot; face=&quot;Comic Sans MS&quot;&gt;CDC&lt;/font&gt;" style="edgeLabel;html=1;align=center;verticalAlign=middle;resizable=0;points=[];fontSize=12;" vertex="1" connectable="0" parent="hKnTpAbirgEthylVcUhE-31">
          <mxGeometry x="0.0359" y="-1" relative="1" as="geometry">
            <mxPoint as="offset" />
          </mxGeometry>
        </mxCell>
        <mxCell id="hKnTpAbirgEthylVcUhE-33" value="User&lt;div&gt;Data&lt;/div&gt;" style="shape=cylinder3;whiteSpace=wrap;html=1;boundedLbl=1;backgroundOutline=1;size=15;fontFamily=Comic Sans MS;align=center;" vertex="1" parent="1">
          <mxGeometry x="1050" y="700" width="60" height="80" as="geometry" />
        </mxCell>
        <mxCell id="hKnTpAbirgEthylVcUhE-36" style="edgeStyle=orthogonalEdgeStyle;rounded=0;orthogonalLoop=1;jettySize=auto;html=1;entryX=0.583;entryY=0;entryDx=0;entryDy=0;entryPerimeter=0;fontSize=12;startSize=8;endSize=8;" edge="1" parent="1" source="hKnTpAbirgEthylVcUhE-27" target="hKnTpAbirgEthylVcUhE-28">
          <mxGeometry relative="1" as="geometry" />
        </mxCell>
        <mxCell id="hKnTpAbirgEthylVcUhE-39" style="edgeStyle=none;curved=1;rounded=0;orthogonalLoop=1;jettySize=auto;html=1;entryX=0;entryY=0.5;entryDx=0;entryDy=0;entryPerimeter=0;fontSize=12;startSize=8;endSize=8;" edge="1" parent="1" source="hKnTpAbirgEthylVcUhE-13" target="hKnTpAbirgEthylVcUhE-25">
          <mxGeometry relative="1" as="geometry" />
        </mxCell>
        <mxCell id="hKnTpAbirgEthylVcUhE-40" style="edgeStyle=none;curved=1;rounded=0;orthogonalLoop=1;jettySize=auto;html=1;entryX=0;entryY=0.5;entryDx=0;entryDy=0;entryPerimeter=0;fontSize=12;startSize=8;endSize=8;startArrow=classic;startFill=1;" edge="1" parent="1" source="hKnTpAbirgEthylVcUhE-15" target="hKnTpAbirgEthylVcUhE-21">
          <mxGeometry relative="1" as="geometry" />
        </mxCell>
        <mxCell id="hKnTpAbirgEthylVcUhE-41" style="edgeStyle=orthogonalEdgeStyle;curved=1;rounded=0;orthogonalLoop=1;jettySize=auto;html=1;entryX=1;entryY=0.5;entryDx=0;entryDy=0;entryPerimeter=0;fontSize=12;startSize=8;endSize=8;startArrow=classic;startFill=1;" edge="1" parent="1" target="hKnTpAbirgEthylVcUhE-23">
          <mxGeometry relative="1" as="geometry">
            <mxPoint x="900" y="670" as="sourcePoint" />
            <Array as="points">
              <mxPoint x="900" y="650" />
              <mxPoint x="1540" y="650" />
              <mxPoint x="1540" y="220" />
              <mxPoint x="1000" y="220" />
              <mxPoint x="1000" y="160" />
            </Array>
          </mxGeometry>
        </mxCell>
        <mxCell id="hKnTpAbirgEthylVcUhE-42" style="edgeStyle=none;curved=1;rounded=0;orthogonalLoop=1;jettySize=auto;html=1;entryX=0;entryY=0.5;entryDx=0;entryDy=0;entryPerimeter=0;fontSize=12;startSize=8;endSize=8;" edge="1" parent="1" source="hKnTpAbirgEthylVcUhE-11" target="hKnTpAbirgEthylVcUhE-24">
          <mxGeometry relative="1" as="geometry" />
        </mxCell>
        <mxCell id="hKnTpAbirgEthylVcUhE-43" value="&lt;font face=&quot;Comic Sans MS&quot;&gt;Following Data Graph&lt;/font&gt;" style="shape=cylinder3;whiteSpace=wrap;html=1;boundedLbl=1;backgroundOutline=1;size=15;fontFamily=Comic Sans MS;align=center;" vertex="1" parent="1">
          <mxGeometry x="1050" y="810" width="60" height="80" as="geometry" />
        </mxCell>
      </root>
    </mxGraphModel>
  </diagram>
  <diagram id="S07HwcDr1ZuyG2haKHJq" name="Design Parking Garage">
    <mxGraphModel dx="1121" dy="1519" grid="1" gridSize="10" guides="1" tooltips="1" connect="1" arrows="1" fold="1" page="1" pageScale="1" pageWidth="850" pageHeight="1100" background="none" math="0" shadow="0">
      <root>
        <mxCell id="0" />
        <mxCell id="1" parent="0" />
        <mxCell id="7no80fTTLhLvf3VAM09u-1" value="&lt;h1 style=&quot;margin-top: 0px;&quot;&gt;&lt;font&gt;Product Requirements&lt;/font&gt;&lt;/h1&gt;&lt;p&gt;&lt;font style=&quot;font-size: 10px;&quot;&gt;- User should be able to reserve a parking slot and receive some kind of slip or token.&lt;/font&gt;&lt;/p&gt;&lt;p&gt;&lt;font style=&quot;font-size: 10px;&quot;&gt;- User have to pay for parking spot&lt;/font&gt;&lt;/p&gt;&lt;p&gt;&lt;font style=&quot;font-size: 10px;&quot;&gt;- Systems needs to have high consistency (no two people should be able to reserver a same parking slot with in the same time)&lt;/font&gt;&lt;/p&gt;&lt;p&gt;&lt;font style=&quot;font-size: 10px;&quot;&gt;- System should support multiple types of vehicles (size, types )&lt;/font&gt;&lt;/p&gt;&lt;p&gt;&lt;font style=&quot;font-size: 10px;&quot;&gt;- Flat Rate based on time but different rates based on type of parking&lt;/font&gt;&lt;/p&gt;" style="text;html=1;whiteSpace=wrap;overflow=hidden;rounded=0;fontFamily=Comic Sans MS;" vertex="1" parent="1">
          <mxGeometry x="40" y="80" width="600" height="190" as="geometry" />
        </mxCell>
        <mxCell id="7no80fTTLhLvf3VAM09u-2" value="&lt;font style=&quot;font-size: 39px;&quot;&gt;Design Parking Garage&lt;/font&gt;" style="text;html=1;align=center;verticalAlign=middle;whiteSpace=wrap;rounded=0;fontSize=39;fontFamily=Comic Sans MS;" vertex="1" parent="1">
          <mxGeometry x="160" y="10" width="490" height="60" as="geometry" />
        </mxCell>
        <mxCell id="7no80fTTLhLvf3VAM09u-3" value="&lt;h1 style=&quot;margin-top: 0px;&quot;&gt;&lt;font&gt;API Endpoints&lt;/font&gt;&lt;/h1&gt;&lt;p&gt;&lt;span style=&quot;font-size: 10px; background-color: initial;&quot;&gt;- /reserve --- params (garage_id, start_time, end_time), return (spot_id, reservation_id)&lt;/span&gt;&lt;/p&gt;&lt;p&gt;&lt;span style=&quot;font-size: 10px; background-color: initial;&quot;&gt;- /payment --- params (reservation_id)&lt;/span&gt;&lt;/p&gt;&lt;p&gt;&lt;span style=&quot;font-size: 10px; background-color: initial;&quot;&gt;- /cancel&amp;nbsp; ---- params (reservation_id)&lt;/span&gt;&lt;/p&gt;&lt;p&gt;&lt;span style=&quot;font-size: 10px; background-color: initial;&quot;&gt;&lt;br&gt;&lt;/span&gt;&lt;/p&gt;&lt;p&gt;&lt;span style=&quot;font-size: 10px; background-color: initial;&quot;&gt;/calculate-payments. ---- params (reservation_id)&lt;/span&gt;&lt;/p&gt;&lt;p&gt;&lt;span style=&quot;font-size: 10px; background-color: initial;&quot;&gt;/frespots ---- params (garage_id, vehicle_type, time),&amp;nbsp;&lt;/span&gt;&lt;/p&gt;&lt;p&gt;&lt;span style=&quot;font-size: 10px; background-color: initial;&quot;&gt;/allocate-spot ---- params (garage_id, vehicle_type, time)&lt;/span&gt;&lt;/p&gt;&lt;p&gt;&lt;span style=&quot;font-size: 10px; background-color: initial;&quot;&gt;/create-account ---- params (email, pass, first_name, last_name)&lt;/span&gt;&lt;/p&gt;&lt;p&gt;&lt;span style=&quot;font-size: 10px; background-color: initial;&quot;&gt;/login ---- params (email, pass)&lt;/span&gt;&lt;/p&gt;" style="text;html=1;whiteSpace=wrap;overflow=hidden;rounded=0;fontFamily=Comic Sans MS;" vertex="1" parent="1">
          <mxGeometry x="40" y="280" width="440" height="290" as="geometry" />
        </mxCell>
        <mxCell id="7no80fTTLhLvf3VAM09u-4" value="Reservation" style="shape=table;startSize=30;container=1;collapsible=1;childLayout=tableLayout;fixedRows=1;rowLines=0;fontStyle=1;align=center;resizeLast=1;html=1;fontFamily=Comic Sans MS;" vertex="1" parent="1">
          <mxGeometry x="40" y="660" width="180" height="210" as="geometry" />
        </mxCell>
        <mxCell id="7no80fTTLhLvf3VAM09u-5" value="" style="shape=tableRow;horizontal=0;startSize=0;swimlaneHead=0;swimlaneBody=0;fillColor=none;collapsible=0;dropTarget=0;points=[[0,0.5],[1,0.5]];portConstraint=eastwest;top=0;left=0;right=0;bottom=1;fontFamily=Comic Sans MS;" vertex="1" parent="7no80fTTLhLvf3VAM09u-4">
          <mxGeometry y="30" width="180" height="30" as="geometry" />
        </mxCell>
        <mxCell id="7no80fTTLhLvf3VAM09u-6" value="PK" style="shape=partialRectangle;connectable=0;fillColor=none;top=0;left=0;bottom=0;right=0;fontStyle=1;overflow=hidden;whiteSpace=wrap;html=1;fontFamily=Comic Sans MS;" vertex="1" parent="7no80fTTLhLvf3VAM09u-5">
          <mxGeometry width="30" height="30" as="geometry">
            <mxRectangle width="30" height="30" as="alternateBounds" />
          </mxGeometry>
        </mxCell>
        <mxCell id="7no80fTTLhLvf3VAM09u-7" value="id" style="shape=partialRectangle;connectable=0;fillColor=none;top=0;left=0;bottom=0;right=0;align=left;spacingLeft=6;fontStyle=5;overflow=hidden;whiteSpace=wrap;html=1;fontFamily=Comic Sans MS;" vertex="1" parent="7no80fTTLhLvf3VAM09u-5">
          <mxGeometry x="30" width="150" height="30" as="geometry">
            <mxRectangle width="150" height="30" as="alternateBounds" />
          </mxGeometry>
        </mxCell>
        <mxCell id="7no80fTTLhLvf3VAM09u-8" value="" style="shape=tableRow;horizontal=0;startSize=0;swimlaneHead=0;swimlaneBody=0;fillColor=none;collapsible=0;dropTarget=0;points=[[0,0.5],[1,0.5]];portConstraint=eastwest;top=0;left=0;right=0;bottom=0;fontFamily=Comic Sans MS;" vertex="1" parent="7no80fTTLhLvf3VAM09u-4">
          <mxGeometry y="60" width="180" height="30" as="geometry" />
        </mxCell>
        <mxCell id="7no80fTTLhLvf3VAM09u-9" value="FK" style="shape=partialRectangle;connectable=0;fillColor=none;top=0;left=0;bottom=0;right=0;editable=1;overflow=hidden;whiteSpace=wrap;html=1;fontFamily=Comic Sans MS;" vertex="1" parent="7no80fTTLhLvf3VAM09u-8">
          <mxGeometry width="30" height="30" as="geometry">
            <mxRectangle width="30" height="30" as="alternateBounds" />
          </mxGeometry>
        </mxCell>
        <mxCell id="7no80fTTLhLvf3VAM09u-10" value="garage_id" style="shape=partialRectangle;connectable=0;fillColor=none;top=0;left=0;bottom=0;right=0;align=left;spacingLeft=6;overflow=hidden;whiteSpace=wrap;html=1;fontFamily=Comic Sans MS;" vertex="1" parent="7no80fTTLhLvf3VAM09u-8">
          <mxGeometry x="30" width="150" height="30" as="geometry">
            <mxRectangle width="150" height="30" as="alternateBounds" />
          </mxGeometry>
        </mxCell>
        <mxCell id="7no80fTTLhLvf3VAM09u-11" value="" style="shape=tableRow;horizontal=0;startSize=0;swimlaneHead=0;swimlaneBody=0;fillColor=none;collapsible=0;dropTarget=0;points=[[0,0.5],[1,0.5]];portConstraint=eastwest;top=0;left=0;right=0;bottom=0;fontFamily=Comic Sans MS;" vertex="1" parent="7no80fTTLhLvf3VAM09u-4">
          <mxGeometry y="90" width="180" height="30" as="geometry" />
        </mxCell>
        <mxCell id="7no80fTTLhLvf3VAM09u-12" value="FK" style="shape=partialRectangle;connectable=0;fillColor=none;top=0;left=0;bottom=0;right=0;editable=1;overflow=hidden;whiteSpace=wrap;html=1;fontFamily=Comic Sans MS;" vertex="1" parent="7no80fTTLhLvf3VAM09u-11">
          <mxGeometry width="30" height="30" as="geometry">
            <mxRectangle width="30" height="30" as="alternateBounds" />
          </mxGeometry>
        </mxCell>
        <mxCell id="7no80fTTLhLvf3VAM09u-13" value="spot_id" style="shape=partialRectangle;connectable=0;fillColor=none;top=0;left=0;bottom=0;right=0;align=left;spacingLeft=6;overflow=hidden;whiteSpace=wrap;html=1;fontFamily=Comic Sans MS;" vertex="1" parent="7no80fTTLhLvf3VAM09u-11">
          <mxGeometry x="30" width="150" height="30" as="geometry">
            <mxRectangle width="150" height="30" as="alternateBounds" />
          </mxGeometry>
        </mxCell>
        <mxCell id="7no80fTTLhLvf3VAM09u-33" value="" style="shape=tableRow;horizontal=0;startSize=0;swimlaneHead=0;swimlaneBody=0;fillColor=none;collapsible=0;dropTarget=0;points=[[0,0.5],[1,0.5]];portConstraint=eastwest;top=0;left=0;right=0;bottom=0;fontFamily=Comic Sans MS;" vertex="1" parent="7no80fTTLhLvf3VAM09u-4">
          <mxGeometry y="120" width="180" height="30" as="geometry" />
        </mxCell>
        <mxCell id="7no80fTTLhLvf3VAM09u-34" value="" style="shape=partialRectangle;connectable=0;fillColor=none;top=0;left=0;bottom=0;right=0;editable=1;overflow=hidden;whiteSpace=wrap;html=1;fontFamily=Comic Sans MS;" vertex="1" parent="7no80fTTLhLvf3VAM09u-33">
          <mxGeometry width="30" height="30" as="geometry">
            <mxRectangle width="30" height="30" as="alternateBounds" />
          </mxGeometry>
        </mxCell>
        <mxCell id="7no80fTTLhLvf3VAM09u-35" value="start_time" style="shape=partialRectangle;connectable=0;fillColor=none;top=0;left=0;bottom=0;right=0;align=left;spacingLeft=6;overflow=hidden;whiteSpace=wrap;html=1;fontFamily=Comic Sans MS;" vertex="1" parent="7no80fTTLhLvf3VAM09u-33">
          <mxGeometry x="30" width="150" height="30" as="geometry">
            <mxRectangle width="150" height="30" as="alternateBounds" />
          </mxGeometry>
        </mxCell>
        <mxCell id="7no80fTTLhLvf3VAM09u-14" value="" style="shape=tableRow;horizontal=0;startSize=0;swimlaneHead=0;swimlaneBody=0;fillColor=none;collapsible=0;dropTarget=0;points=[[0,0.5],[1,0.5]];portConstraint=eastwest;top=0;left=0;right=0;bottom=0;fontFamily=Comic Sans MS;" vertex="1" parent="7no80fTTLhLvf3VAM09u-4">
          <mxGeometry y="150" width="180" height="30" as="geometry" />
        </mxCell>
        <mxCell id="7no80fTTLhLvf3VAM09u-15" value="" style="shape=partialRectangle;connectable=0;fillColor=none;top=0;left=0;bottom=0;right=0;editable=1;overflow=hidden;whiteSpace=wrap;html=1;fontFamily=Comic Sans MS;" vertex="1" parent="7no80fTTLhLvf3VAM09u-14">
          <mxGeometry width="30" height="30" as="geometry">
            <mxRectangle width="30" height="30" as="alternateBounds" />
          </mxGeometry>
        </mxCell>
        <mxCell id="7no80fTTLhLvf3VAM09u-16" value="end_time" style="shape=partialRectangle;connectable=0;fillColor=none;top=0;left=0;bottom=0;right=0;align=left;spacingLeft=6;overflow=hidden;whiteSpace=wrap;html=1;fontFamily=Comic Sans MS;" vertex="1" parent="7no80fTTLhLvf3VAM09u-14">
          <mxGeometry x="30" width="150" height="30" as="geometry">
            <mxRectangle width="150" height="30" as="alternateBounds" />
          </mxGeometry>
        </mxCell>
        <mxCell id="7no80fTTLhLvf3VAM09u-36" value="" style="shape=tableRow;horizontal=0;startSize=0;swimlaneHead=0;swimlaneBody=0;fillColor=none;collapsible=0;dropTarget=0;points=[[0,0.5],[1,0.5]];portConstraint=eastwest;top=0;left=0;right=0;bottom=0;fontFamily=Comic Sans MS;" vertex="1" parent="7no80fTTLhLvf3VAM09u-4">
          <mxGeometry y="180" width="180" height="30" as="geometry" />
        </mxCell>
        <mxCell id="7no80fTTLhLvf3VAM09u-37" value="" style="shape=partialRectangle;connectable=0;fillColor=none;top=0;left=0;bottom=0;right=0;editable=1;overflow=hidden;whiteSpace=wrap;html=1;fontFamily=Comic Sans MS;" vertex="1" parent="7no80fTTLhLvf3VAM09u-36">
          <mxGeometry width="30" height="30" as="geometry">
            <mxRectangle width="30" height="30" as="alternateBounds" />
          </mxGeometry>
        </mxCell>
        <mxCell id="7no80fTTLhLvf3VAM09u-38" value="paid" style="shape=partialRectangle;connectable=0;fillColor=none;top=0;left=0;bottom=0;right=0;align=left;spacingLeft=6;overflow=hidden;whiteSpace=wrap;html=1;fontFamily=Comic Sans MS;" vertex="1" parent="7no80fTTLhLvf3VAM09u-36">
          <mxGeometry x="30" width="150" height="30" as="geometry">
            <mxRectangle width="150" height="30" as="alternateBounds" />
          </mxGeometry>
        </mxCell>
        <mxCell id="7no80fTTLhLvf3VAM09u-17" value="Garage" style="shape=table;startSize=30;container=1;collapsible=1;childLayout=tableLayout;fixedRows=1;rowLines=0;fontStyle=1;align=center;resizeLast=1;html=1;fontFamily=Comic Sans MS;" vertex="1" parent="1">
          <mxGeometry x="290" y="790" width="180" height="180" as="geometry" />
        </mxCell>
        <mxCell id="7no80fTTLhLvf3VAM09u-18" value="" style="shape=tableRow;horizontal=0;startSize=0;swimlaneHead=0;swimlaneBody=0;fillColor=none;collapsible=0;dropTarget=0;points=[[0,0.5],[1,0.5]];portConstraint=eastwest;top=0;left=0;right=0;bottom=1;fontFamily=Comic Sans MS;" vertex="1" parent="7no80fTTLhLvf3VAM09u-17">
          <mxGeometry y="30" width="180" height="30" as="geometry" />
        </mxCell>
        <mxCell id="7no80fTTLhLvf3VAM09u-19" value="PK" style="shape=partialRectangle;connectable=0;fillColor=none;top=0;left=0;bottom=0;right=0;fontStyle=1;overflow=hidden;whiteSpace=wrap;html=1;fontFamily=Comic Sans MS;" vertex="1" parent="7no80fTTLhLvf3VAM09u-18">
          <mxGeometry width="30" height="30" as="geometry">
            <mxRectangle width="30" height="30" as="alternateBounds" />
          </mxGeometry>
        </mxCell>
        <mxCell id="7no80fTTLhLvf3VAM09u-20" value="id" style="shape=partialRectangle;connectable=0;fillColor=none;top=0;left=0;bottom=0;right=0;align=left;spacingLeft=6;fontStyle=5;overflow=hidden;whiteSpace=wrap;html=1;fontFamily=Comic Sans MS;" vertex="1" parent="7no80fTTLhLvf3VAM09u-18">
          <mxGeometry x="30" width="150" height="30" as="geometry">
            <mxRectangle width="150" height="30" as="alternateBounds" />
          </mxGeometry>
        </mxCell>
        <mxCell id="7no80fTTLhLvf3VAM09u-21" value="" style="shape=tableRow;horizontal=0;startSize=0;swimlaneHead=0;swimlaneBody=0;fillColor=none;collapsible=0;dropTarget=0;points=[[0,0.5],[1,0.5]];portConstraint=eastwest;top=0;left=0;right=0;bottom=0;fontFamily=Comic Sans MS;" vertex="1" parent="7no80fTTLhLvf3VAM09u-17">
          <mxGeometry y="60" width="180" height="30" as="geometry" />
        </mxCell>
        <mxCell id="7no80fTTLhLvf3VAM09u-22" value="" style="shape=partialRectangle;connectable=0;fillColor=none;top=0;left=0;bottom=0;right=0;editable=1;overflow=hidden;whiteSpace=wrap;html=1;fontFamily=Comic Sans MS;" vertex="1" parent="7no80fTTLhLvf3VAM09u-21">
          <mxGeometry width="30" height="30" as="geometry">
            <mxRectangle width="30" height="30" as="alternateBounds" />
          </mxGeometry>
        </mxCell>
        <mxCell id="7no80fTTLhLvf3VAM09u-23" value="zip_code" style="shape=partialRectangle;connectable=0;fillColor=none;top=0;left=0;bottom=0;right=0;align=left;spacingLeft=6;overflow=hidden;whiteSpace=wrap;html=1;fontFamily=Comic Sans MS;" vertex="1" parent="7no80fTTLhLvf3VAM09u-21">
          <mxGeometry x="30" width="150" height="30" as="geometry">
            <mxRectangle width="150" height="30" as="alternateBounds" />
          </mxGeometry>
        </mxCell>
        <mxCell id="7no80fTTLhLvf3VAM09u-24" value="" style="shape=tableRow;horizontal=0;startSize=0;swimlaneHead=0;swimlaneBody=0;fillColor=none;collapsible=0;dropTarget=0;points=[[0,0.5],[1,0.5]];portConstraint=eastwest;top=0;left=0;right=0;bottom=0;fontFamily=Comic Sans MS;" vertex="1" parent="7no80fTTLhLvf3VAM09u-17">
          <mxGeometry y="90" width="180" height="30" as="geometry" />
        </mxCell>
        <mxCell id="7no80fTTLhLvf3VAM09u-25" value="" style="shape=partialRectangle;connectable=0;fillColor=none;top=0;left=0;bottom=0;right=0;editable=1;overflow=hidden;whiteSpace=wrap;html=1;fontFamily=Comic Sans MS;" vertex="1" parent="7no80fTTLhLvf3VAM09u-24">
          <mxGeometry width="30" height="30" as="geometry">
            <mxRectangle width="30" height="30" as="alternateBounds" />
          </mxGeometry>
        </mxCell>
        <mxCell id="7no80fTTLhLvf3VAM09u-26" value="rate_compact" style="shape=partialRectangle;connectable=0;fillColor=none;top=0;left=0;bottom=0;right=0;align=left;spacingLeft=6;overflow=hidden;whiteSpace=wrap;html=1;fontFamily=Comic Sans MS;" vertex="1" parent="7no80fTTLhLvf3VAM09u-24">
          <mxGeometry x="30" width="150" height="30" as="geometry">
            <mxRectangle width="150" height="30" as="alternateBounds" />
          </mxGeometry>
        </mxCell>
        <mxCell id="7no80fTTLhLvf3VAM09u-27" value="" style="shape=tableRow;horizontal=0;startSize=0;swimlaneHead=0;swimlaneBody=0;fillColor=none;collapsible=0;dropTarget=0;points=[[0,0.5],[1,0.5]];portConstraint=eastwest;top=0;left=0;right=0;bottom=0;fontFamily=Comic Sans MS;" vertex="1" parent="7no80fTTLhLvf3VAM09u-17">
          <mxGeometry y="120" width="180" height="30" as="geometry" />
        </mxCell>
        <mxCell id="7no80fTTLhLvf3VAM09u-28" value="" style="shape=partialRectangle;connectable=0;fillColor=none;top=0;left=0;bottom=0;right=0;editable=1;overflow=hidden;whiteSpace=wrap;html=1;fontFamily=Comic Sans MS;" vertex="1" parent="7no80fTTLhLvf3VAM09u-27">
          <mxGeometry width="30" height="30" as="geometry">
            <mxRectangle width="30" height="30" as="alternateBounds" />
          </mxGeometry>
        </mxCell>
        <mxCell id="7no80fTTLhLvf3VAM09u-29" value="rate_reg" style="shape=partialRectangle;connectable=0;fillColor=none;top=0;left=0;bottom=0;right=0;align=left;spacingLeft=6;overflow=hidden;whiteSpace=wrap;html=1;fontFamily=Comic Sans MS;" vertex="1" parent="7no80fTTLhLvf3VAM09u-27">
          <mxGeometry x="30" width="150" height="30" as="geometry">
            <mxRectangle width="150" height="30" as="alternateBounds" />
          </mxGeometry>
        </mxCell>
        <mxCell id="7no80fTTLhLvf3VAM09u-30" value="" style="shape=tableRow;horizontal=0;startSize=0;swimlaneHead=0;swimlaneBody=0;fillColor=none;collapsible=0;dropTarget=0;points=[[0,0.5],[1,0.5]];portConstraint=eastwest;top=0;left=0;right=0;bottom=0;fontFamily=Comic Sans MS;" vertex="1" parent="7no80fTTLhLvf3VAM09u-17">
          <mxGeometry y="150" width="180" height="30" as="geometry" />
        </mxCell>
        <mxCell id="7no80fTTLhLvf3VAM09u-31" value="" style="shape=partialRectangle;connectable=0;fillColor=none;top=0;left=0;bottom=0;right=0;editable=1;overflow=hidden;whiteSpace=wrap;html=1;fontFamily=Comic Sans MS;" vertex="1" parent="7no80fTTLhLvf3VAM09u-30">
          <mxGeometry width="30" height="30" as="geometry">
            <mxRectangle width="30" height="30" as="alternateBounds" />
          </mxGeometry>
        </mxCell>
        <mxCell id="7no80fTTLhLvf3VAM09u-32" value="rate_large" style="shape=partialRectangle;connectable=0;fillColor=none;top=0;left=0;bottom=0;right=0;align=left;spacingLeft=6;overflow=hidden;whiteSpace=wrap;html=1;fontFamily=Comic Sans MS;" vertex="1" parent="7no80fTTLhLvf3VAM09u-30">
          <mxGeometry x="30" width="150" height="30" as="geometry">
            <mxRectangle width="150" height="30" as="alternateBounds" />
          </mxGeometry>
        </mxCell>
        <mxCell id="7no80fTTLhLvf3VAM09u-39" value="Spots" style="shape=table;startSize=30;container=1;collapsible=1;childLayout=tableLayout;fixedRows=1;rowLines=0;fontStyle=1;align=center;resizeLast=1;html=1;fontFamily=Comic Sans MS;" vertex="1" parent="1">
          <mxGeometry x="40" y="910" width="180" height="150" as="geometry" />
        </mxCell>
        <mxCell id="7no80fTTLhLvf3VAM09u-40" value="" style="shape=tableRow;horizontal=0;startSize=0;swimlaneHead=0;swimlaneBody=0;fillColor=none;collapsible=0;dropTarget=0;points=[[0,0.5],[1,0.5]];portConstraint=eastwest;top=0;left=0;right=0;bottom=1;fontFamily=Comic Sans MS;" vertex="1" parent="7no80fTTLhLvf3VAM09u-39">
          <mxGeometry y="30" width="180" height="30" as="geometry" />
        </mxCell>
        <mxCell id="7no80fTTLhLvf3VAM09u-41" value="PK" style="shape=partialRectangle;connectable=0;fillColor=none;top=0;left=0;bottom=0;right=0;fontStyle=1;overflow=hidden;whiteSpace=wrap;html=1;fontFamily=Comic Sans MS;" vertex="1" parent="7no80fTTLhLvf3VAM09u-40">
          <mxGeometry width="30" height="30" as="geometry">
            <mxRectangle width="30" height="30" as="alternateBounds" />
          </mxGeometry>
        </mxCell>
        <mxCell id="7no80fTTLhLvf3VAM09u-42" value="id" style="shape=partialRectangle;connectable=0;fillColor=none;top=0;left=0;bottom=0;right=0;align=left;spacingLeft=6;fontStyle=5;overflow=hidden;whiteSpace=wrap;html=1;fontFamily=Comic Sans MS;" vertex="1" parent="7no80fTTLhLvf3VAM09u-40">
          <mxGeometry x="30" width="150" height="30" as="geometry">
            <mxRectangle width="150" height="30" as="alternateBounds" />
          </mxGeometry>
        </mxCell>
        <mxCell id="7no80fTTLhLvf3VAM09u-43" value="" style="shape=tableRow;horizontal=0;startSize=0;swimlaneHead=0;swimlaneBody=0;fillColor=none;collapsible=0;dropTarget=0;points=[[0,0.5],[1,0.5]];portConstraint=eastwest;top=0;left=0;right=0;bottom=0;fontFamily=Comic Sans MS;" vertex="1" parent="7no80fTTLhLvf3VAM09u-39">
          <mxGeometry y="60" width="180" height="30" as="geometry" />
        </mxCell>
        <mxCell id="7no80fTTLhLvf3VAM09u-44" value="FK" style="shape=partialRectangle;connectable=0;fillColor=none;top=0;left=0;bottom=0;right=0;editable=1;overflow=hidden;whiteSpace=wrap;html=1;fontFamily=Comic Sans MS;" vertex="1" parent="7no80fTTLhLvf3VAM09u-43">
          <mxGeometry width="30" height="30" as="geometry">
            <mxRectangle width="30" height="30" as="alternateBounds" />
          </mxGeometry>
        </mxCell>
        <mxCell id="7no80fTTLhLvf3VAM09u-45" value="garage_id" style="shape=partialRectangle;connectable=0;fillColor=none;top=0;left=0;bottom=0;right=0;align=left;spacingLeft=6;overflow=hidden;whiteSpace=wrap;html=1;fontFamily=Comic Sans MS;" vertex="1" parent="7no80fTTLhLvf3VAM09u-43">
          <mxGeometry x="30" width="150" height="30" as="geometry">
            <mxRectangle width="150" height="30" as="alternateBounds" />
          </mxGeometry>
        </mxCell>
        <mxCell id="7no80fTTLhLvf3VAM09u-46" value="" style="shape=tableRow;horizontal=0;startSize=0;swimlaneHead=0;swimlaneBody=0;fillColor=none;collapsible=0;dropTarget=0;points=[[0,0.5],[1,0.5]];portConstraint=eastwest;top=0;left=0;right=0;bottom=0;fontFamily=Comic Sans MS;" vertex="1" parent="7no80fTTLhLvf3VAM09u-39">
          <mxGeometry y="90" width="180" height="30" as="geometry" />
        </mxCell>
        <mxCell id="7no80fTTLhLvf3VAM09u-47" value="FK" style="shape=partialRectangle;connectable=0;fillColor=none;top=0;left=0;bottom=0;right=0;editable=1;overflow=hidden;whiteSpace=wrap;html=1;fontFamily=Comic Sans MS;" vertex="1" parent="7no80fTTLhLvf3VAM09u-46">
          <mxGeometry width="30" height="30" as="geometry">
            <mxRectangle width="30" height="30" as="alternateBounds" />
          </mxGeometry>
        </mxCell>
        <mxCell id="7no80fTTLhLvf3VAM09u-48" value="vehicle_type (enum)" style="shape=partialRectangle;connectable=0;fillColor=none;top=0;left=0;bottom=0;right=0;align=left;spacingLeft=6;overflow=hidden;whiteSpace=wrap;html=1;fontFamily=Comic Sans MS;" vertex="1" parent="7no80fTTLhLvf3VAM09u-46">
          <mxGeometry x="30" width="150" height="30" as="geometry">
            <mxRectangle width="150" height="30" as="alternateBounds" />
          </mxGeometry>
        </mxCell>
        <mxCell id="7no80fTTLhLvf3VAM09u-49" value="" style="shape=tableRow;horizontal=0;startSize=0;swimlaneHead=0;swimlaneBody=0;fillColor=none;collapsible=0;dropTarget=0;points=[[0,0.5],[1,0.5]];portConstraint=eastwest;top=0;left=0;right=0;bottom=0;fontFamily=Comic Sans MS;" vertex="1" parent="7no80fTTLhLvf3VAM09u-39">
          <mxGeometry y="120" width="180" height="30" as="geometry" />
        </mxCell>
        <mxCell id="7no80fTTLhLvf3VAM09u-50" value="" style="shape=partialRectangle;connectable=0;fillColor=none;top=0;left=0;bottom=0;right=0;editable=1;overflow=hidden;whiteSpace=wrap;html=1;fontFamily=Comic Sans MS;" vertex="1" parent="7no80fTTLhLvf3VAM09u-49">
          <mxGeometry width="30" height="30" as="geometry">
            <mxRectangle width="30" height="30" as="alternateBounds" />
          </mxGeometry>
        </mxCell>
        <mxCell id="7no80fTTLhLvf3VAM09u-51" value="statue" style="shape=partialRectangle;connectable=0;fillColor=none;top=0;left=0;bottom=0;right=0;align=left;spacingLeft=6;overflow=hidden;whiteSpace=wrap;html=1;fontFamily=Comic Sans MS;" vertex="1" parent="7no80fTTLhLvf3VAM09u-49">
          <mxGeometry x="30" width="150" height="30" as="geometry">
            <mxRectangle width="150" height="30" as="alternateBounds" />
          </mxGeometry>
        </mxCell>
        <mxCell id="7no80fTTLhLvf3VAM09u-58" value="&lt;font style=&quot;font-size: 24px;&quot;&gt;High Level DB Model&lt;/font&gt;" style="text;html=1;align=center;verticalAlign=middle;whiteSpace=wrap;rounded=0;fontSize=24;fontFamily=Comic Sans MS;" vertex="1" parent="1">
          <mxGeometry x="40" y="590" width="240" height="60" as="geometry" />
        </mxCell>
      </root>
    </mxGraphModel>
  </diagram>
</mxfile>
